<svg xmlns="http://www.w3.org/2000/svg" viewBox="0 0 45.21 49.4"><g style="isolation:isolate"><g id="Layer_2" data-name="Layer 2"><g id="Layer_1-2" data-name="Layer 1"><g style="mix-blend-mode:multiply"><polygon points="39.19 9.8 42.09 16.59 38.4 35.81 32.06 35.73 35.32 13.75 39.19 9.8" style="stroke:#000;stroke-linejoin:round;stroke-width:0.37687070348409px"/><polygon points="27.73 12.26 39.16 9.81 34.58 36.47 26.09 37.67 27.73 12.26" style="stroke:#000;stroke-linejoin:round;stroke-width:0.37687070348409px"/><polygon points="21.44 0.82 34.28 1.73 28.24 33.84 20.82 33.24 19.93 5.12 21.44 0.82" style="stroke:#000;stroke-linejoin:round;stroke-width:0.37687070348409px"/><polygon points="18.71 33.36 16.28 6.97 21.36 0.85 21.18 33.32 18.71 33.36" style="stroke:#000;stroke-linejoin:round;stroke-width:0.37687070348409px"/><polygon points="7.17 11 3.53 15.74 9.03 34.91 11.49 35.12 9.74 13.38 7.17 11" style="stroke:#000;stroke-linejoin:round;stroke-width:0.37687070348409px"/><polygon points="19.81 8.97 7.28 10.92 11.49 35.12 18.87 34.73 19.81 8.97" style="stroke:#000;stroke-linejoin:round;stroke-width:0.37687070348409px"/><polygon points="9.25 12.61 9.53 14.72 11.26 14.52 11.05 12.36 9.25 12.61"/><polygon points="13.62 18.64 14 20.82 15.58 20.62 15.42 18.38 13.62 18.64"/><polygon points="12.65 36.78 11.01 49.19 40.51 45.74 43.36 45.4 44.98 35.44 12.65 36.78" style="stroke:#000;stroke-miterlimit:10;stroke-width:0.37687070348409px"/><path d="M17.6,42.58l.32-2.36a.67.67,0,0,0-.78-.74l-.58,0a1.1,1.1,0,0,0-1,.87l-.65,4.85c-.06.45.3.76.8.71l2.77-.27-.14,1.18-2.8.3c-1.26.13-2.18-.66-2-1.78l.65-4.9a2.78,2.78,0,0,1,2.59-2.18l.57,0a1.69,1.69,0,0,1,1.95,1.88l-.32,2.35Z"/><path d="M23.92,46.26l-1.25.14.1-3.17-1.5.15-.81,3.25-1.31.14,2.18-8.72,2.88-.15Zm-1.12-4.1.1-3-.58,0-.76,3Z"/><path d="M27.64,42.88,26.58,43l-.27,1.86L26.13,46l-1.19.13,1.2-8.35,2.48-.13a1.49,1.49,0,0,1,1.65,1.75l-.22,1.43a2.46,2.46,0,0,1-1.25,1.72A2.72,2.72,0,0,1,27.64,42.88Zm1.48-3.38a.6.6,0,0,0-.66-.7l-1.28.08-.43,3s.68,0,1.26-.08a1,1,0,0,0,.89-.82Z"/><path d="M30.21,45.58l1.2-8,1.14-.06-1.2,8Z"/><path d="M36.71,38.31l-1.29.08-1,6.72-1.07.12,1-6.78L33,38.53l.16-1.09,3.68-.19Z"/><path d="M39.62,44.58l-1,.1.17-2.84-1.2.12-.74,2.91-1,.11,2-7.78,2.3-.12Zm-.78-3.7L39,38.21l-.47,0L37.85,41Z"/><path d="M42.63,44.22l-.63.07a1.2,1.2,0,0,1-1.33-1.52L41.59,37l1,0-.91,5.73a.48.48,0,0,0,.52.61l.64-.07Z"/><polygon points="2.09 25.73 0.84 35.65 28.5 34.51 33.01 34.32 34.8 20.89 2.09 25.73" style="stroke:#000;stroke-miterlimit:10;stroke-width:0.37687070348409px"/><path d="M6.11,28.26l-.17,1.35a2.3,2.3,0,0,1-.61,1.27,1.55,1.55,0,0,1,.3,1.19l0,.34a2.07,2.07,0,0,1-1.76,1.82L2,34.33,2.9,27l1.88-.25C5.63,26.62,6.23,27.3,6.11,28.26ZM3.32,30.54s.53,0,1-.07A.88.88,0,0,0,5,29.71l.17-1.34c0-.38-.19-.65-.52-.61l-1,.12Zm1.38,1.6a.52.52,0,0,0-.54-.65c-.44,0-1,.08-1,.1L3,33.27l1-.07a.81.81,0,0,0,.69-.72Z"/><path d="M9.75,33.91l-1,.06.1-3-1.17.12L7,34.06l-1,0,1.69-7.78L10,26ZM8.86,30,9,27.26l-.46.06-.61,2.76Z"/><path d="M13.94,31.26l.75-5.85,1.16-.16-1.07,8.37-1.77.1-.58-5.66-.74,5.73-1.07.06,1-8,1.71-.22Z"/><path d="M20.5,25.81,19,26l-1,7.43-1.18.07.94-7.36-1.43.18.15-1.16,4.14-.55Z"/><path d="M21.93,30l-.26,2,3-.2L24.5,33.1l-4.25.23,1.14-8.81,4.3-.58-.16,1.26-3,.37-.41,3.18,1.39-.11-.16,1.22Z"/><path d="M30.93,32.76l-1.57.09-.78-3.42-1.29.11L27,31.64,26.83,33,25.45,33l1.21-9.23,3-.39c1.35-.18,2.34.66,2.18,1.87L31.6,27A2.89,2.89,0,0,1,30,29.06Zm-.61-7.3c.07-.47-.32-.81-.86-.74l-1.56.19-.44,3.35s.83-.06,1.54-.13a1.24,1.24,0,0,0,1.1-1Z"/><polygon points="33.39 12.62 33.05 14.98 34.35 14.95 34.87 12.31 33.39 12.62"/></g><polygon points="38.57 9.18 41.46 15.96 37.77 35.18 31.43 35.1 34.69 13.12 38.57 9.18" style="fill:#ed0f05;stroke:#000;stroke-linejoin:round;stroke-width:0.37687070348409px"/><polygon points="27.1 11.63 38.53 9.19 33.95 35.84 25.46 37.04 27.1 11.63" style="fill:#ed0f05;stroke:#000;stroke-linejoin:round;stroke-width:0.37687070348409px"/><polygon points="20.81 0.19 33.65 1.1 27.62 33.22 20.19 32.61 19.3 4.49 20.81 0.19" style="fill:#ed0f05;stroke:#000;stroke-linejoin:round;stroke-width:0.37687070348409px"/><polygon points="18.09 32.73 15.65 6.34 20.74 0.22 20.55 32.69 18.09 32.73" style="fill:#ed0f05;stroke:#000;stroke-linejoin:round;stroke-width:0.37687070348409px"/><polygon points="6.54 10.37 2.9 15.11 8.4 34.28 10.86 34.49 9.11 12.75 6.54 10.37" style="fill:#ed0f05;stroke:#000;stroke-linejoin:round;stroke-width:0.37687070348409px"/><polygon points="19.18 8.34 6.65 10.29 10.86 34.49 18.25 34.1 19.18 8.34" style="fill:#ed0f05;stroke:#000;stroke-linejoin:round;stroke-width:0.37687070348409px"/><polygon points="8.62 11.98 8.9 14.09 10.63 13.89 10.42 11.73 8.62 11.98"/><polygon points="12.99 18.01 13.37 20.19 14.95 20 14.79 17.75 12.99 18.01"/><polygon points="12.02 36.15 10.38 48.56 39.88 45.11 42.73 44.77 44.35 34.81 12.02 36.15" style="fill:#005bee;stroke:#000;stroke-miterlimit:10;stroke-width:0.37687070348409px"/><path d="M17,42l.32-2.36a.67.67,0,0,0-.78-.74l-.58,0a1.1,1.1,0,0,0-1,.87l-.65,4.86c-.06.44.3.76.8.71L17.83,45l-.13,1.18-2.8.3c-1.27.13-2.19-.66-2-1.78l.66-4.9a2.75,2.75,0,0,1,2.58-2.17l.57,0a1.68,1.68,0,0,1,1.95,1.87l-.32,2.35Z" style="fill:#fff"/><path d="M23.29,45.63,22,45.77l.1-3.17-1.49.15L19.83,46l-1.3.14,2.17-8.71,2.88-.15Zm-1.11-4.1.09-3-.58,0-.76,3Z" style="fill:#fff"/><path d="M27,42.25,26,42.34l-.27,1.86-.18,1.2-1.19.12,1.2-8.34L28,37.05a1.49,1.49,0,0,1,1.65,1.75l-.21,1.43a2.5,2.5,0,0,1-2.42,2Zm1.48-3.38a.6.6,0,0,0-.66-.7l-1.28.08-.43,3s.68,0,1.26-.08a1,1,0,0,0,.9-.82Z" style="fill:#fff"/><path d="M29.58,45l1.2-8.05,1.14-.06-1.2,8Z" style="fill:#fff"/><path d="M36.08,37.68l-1.28.08-1,6.73-1.07.11,1-6.78-1.33.08.16-1.09,3.68-.19Z" style="fill:#fff"/><path d="M39,44l-1,.1.17-2.83-1.2.12-.73,2.9-1,.12,2-7.79,2.3-.12Zm-.77-3.7.15-2.67-.46,0-.69,2.71Z" style="fill:#fff"/><path d="M42,43.6l-.64.06A1.2,1.2,0,0,1,40,42.15L41,36.37l1,0L41,42.05a.48.48,0,0,0,.52.61l.64-.06Z" style="fill:#fff"/><polygon points="1.46 25.1 0.21 35.02 27.87 33.88 32.38 33.69 34.18 20.26 1.46 25.1" style="fill:#005bee;stroke:#000;stroke-miterlimit:10;stroke-width:0.37687070348409px"/><path d="M5.48,27.63,5.31,29a2.3,2.3,0,0,1-.61,1.27A1.55,1.55,0,0,1,5,31.44l0,.34A2.06,2.06,0,0,1,3.2,33.6l-1.86.1.93-7.35,1.88-.25C5,26,5.6,26.67,5.48,27.63ZM2.7,29.92l1-.08a.87.87,0,0,0,.71-.76l.16-1.34c0-.38-.18-.65-.52-.61l-1,.12Zm1.37,1.59a.53.53,0,0,0-.53-.65c-.45,0-1,.09-1,.1l-.22,1.68,1-.07a.82.82,0,0,0,.7-.72Z" style="fill:#fff"/><path d="M9.13,33.28l-1,.06.1-3L7,30.49l-.65,2.94-1,.06,1.69-7.78,2.27-.31Zm-.9-3.9.09-2.74-.46.05-.6,2.76Z" style="fill:#fff"/><path d="M13.31,30.63l.76-5.85,1.15-.15L14.15,33l-1.77.09-.58-5.65-.73,5.73-1.08,0,1-8L12.72,25Z" style="fill:#fff"/><path d="M19.88,25.18l-1.5.19-1,7.43-1.18.07.95-7.35-1.43.17.15-1.15L20,24Z" style="fill:#fff"/><path d="M21.31,29.37,21,31.42l3-.2-.16,1.25-4.25.23,1.14-8.81,4.31-.57-.17,1.25-3,.37-.41,3.18L22.86,28l-.16,1.23Z" style="fill:#fff"/><path d="M30.3,32.14l-1.57.09L28,28.8l-1.28.11L26.39,31l-.18,1.33-1.38.07L26,23.19l3-.4c1.35-.18,2.35.66,2.19,1.87L31,26.37a2.89,2.89,0,0,1-1.57,2.06Zm-.6-7.3a.69.69,0,0,0-.86-.75l-1.57.19-.44,3.35s.83-.06,1.54-.13a1.24,1.24,0,0,0,1.1-1Z" style="fill:#fff"/><polygon points="32.76 11.99 32.42 14.36 33.73 14.32 34.24 11.68 32.76 11.99"/><polygon points="16.05 17.61 16.15 19.87 17.89 19.7 17.99 17.34 16.05 17.61"/><path d="M27.37,9.52l-1.53-.08a2.19,2.19,0,0,1-2.29-2.08l-.06-3a1.78,1.78,0,0,1,2.23-1.88l1.53.19a2.21,2.21,0,0,1,2.14,1.81v.58L28.5,5V4.76a1.36,1.36,0,0,0-1.2-1.14l-1.56-.18a1,1,0,0,0-1.25,1l.06,2.93c0,.66.57,1,1.28,1.07l1.53.1c.69,0,1.2-.3,1.2-.83V7.41l.9.07v.61c0,.87-.89,1.5-2.08,1.43" style="fill:#fff"/><path d="M27.21,5.77l-2-.18,0-1c0-.14.13-.52.5-.48l1.5.16a.86.86,0,0,1,.74.82.64.64,0,0,1-.72.67" style="fill:#fff"/><path d="M27.26,7.88,25.7,7.77a.5.5,0,0,1-.45-.51l0-.92,2,.17a.77.77,0,0,1,.73.73.62.62,0,0,1-.71.64" style="fill:#fff"/></g></g></g></svg>