<svg xmlns="http://www.w3.org/2000/svg" viewBox="0 0 29.11 25.87"><g id="Layer_2" data-name="Layer 2"><g id="Layer_1-2" data-name="Layer 1"><path d="M4.2,7.39A6,6,0,0,0,.5,13.06a6.06,6.06,0,0,0,3.59,5.86" style="fill:none;stroke:#fff;stroke-linecap:round;stroke-linejoin:round"/><path d="M20.7.5s-2.12,6-12.94,6.15a8.72,8.72,0,0,0-3.54.71l0,11.56a8,8,0,0,0,3.51.64c10.92-.17,12.89,5.81,12.89,5.81C20.46,25.57,20.7.5,20.7.5Z" style="fill:none;stroke:#fff;stroke-linecap:round;stroke-linejoin:round"/><path d="M23.49,6.34a16.65,16.65,0,0,1,.14,12.15" style="fill:none;stroke:#fff;stroke-linecap:round;stroke-linejoin:round"/><path d="M26.86,4.22a20.61,20.61,0,0,1,.24,16.06" style="fill:none;stroke:#fff;stroke-linecap:round;stroke-linejoin:round"/></g></g></svg>