<svg xmlns="http://www.w3.org/2000/svg" viewBox="0 0 35.91 35.91"><g id="Layer_2" data-name="Layer 2"><g id="Layer_1-2" data-name="Layer 1"><circle cx="17.95" cy="17.95" r="17.95" style="fill:red"/><path d="M20.39,28.92l-5,0c-5.1,0-7.15-3.2-7.16-6.1l-.08-9.44c0-4.5,3.11-6.81,7.11-6.83l5,0c4,0,7.15,2.23,7.17,5.13v1.94l-3.08,0,0-.7c0-1.44-1.7-3.32-4-3.3l-5.09,0a3.87,3.87,0,0,0-4,3.78l.07,9.29c0,2.12,1.78,3.14,4.07,3.13l5,0c2.29,0,4-1.59,4-3V21.69h3.09v2c0,2.9-3.11,5.19-7.11,5.21" style="fill:#fff"/><path d="M20,17l-6.5,0,0-3.16a1.77,1.77,0,0,1,1.62-1.72l4.88,0A2.44,2.44,0,0,1,20,17" style="fill:#fff"/><path d="M20.08,23.55l-5.11,0a1.43,1.43,0,0,1-1.44-1.51l0-3.26,6.54,0a2.39,2.39,0,1,1,0,4.78" style="fill:#fff"/></g></g></svg>