<svg id="Layer_1" data-name="Layer 1" xmlns="http://www.w3.org/2000/svg" viewBox="0 0 35.91 47.76"><defs><style>.cls-1{fill:none;stroke-width:0.28px;}.cls-1,.cls-3{stroke:#000;stroke-miterlimit:10;}.cls-2{fill:#ed0f05;}.cls-3{fill:#005bee;stroke-width:0.25px;}.cls-4{isolation:isolate;}.cls-5{fill:#fff;}</style></defs><title>School-Asset-12</title><g id="Layer_2" data-name="Layer 2"><g id="Layer_1-2" data-name="Layer 1-2"><polygon points="35.83 32.65 32.55 35.19 32.55 32.19 35.4 32.34 35.83 32.65"/><polygon points="0.07 32.65 5.62 37.45 3.36 32.19 0.51 32.34 0.07 32.65"/><polygon points="0.05 17.88 2.97 21.45 3.37 17.63 0.05 17.88"/><polygon points="35.87 17.91 32.94 20.18 32.94 17.3 35.87 17.91"/><path d="M3.57,28.68V.82l15,2.47L33.65.82V28.69a18.25,18.25,0,0,1-9.77,16.16L18.62,47.6l-5.26-2.75A18.25,18.25,0,0,1,3.57,28.68Z"/><path class="cls-1" d="M3.57,28.68V.82l15,2.47L33.65.82V28.69a18.25,18.25,0,0,1-9.77,16.16L18.62,47.6l-5.26-2.75A18.25,18.25,0,0,1,3.57,28.68Z"/><path class="cls-2" d="M2.91,28V.17l15,2.46L33,.17V28a18.27,18.27,0,0,1-9.78,16.2L18,47l-5.3-2.81A18.27,18.27,0,0,1,2.91,28Z"/><path class="cls-1" d="M2.91,28V.17l15,2.46L33,.17V28a18.27,18.27,0,0,1-9.78,16.2L18,47l-5.3-2.81A18.27,18.27,0,0,1,2.91,28Z"/><polygon class="cls-3" points="0.12 5.06 0.12 17.77 31.94 17.82 35.78 17.81 35.79 5.09 0.12 5.06"/><g class="cls-4"><path class="cls-5" d="M5,11.44V8.93a.85.85,0,0,0-.84-.84H3.59a.85.85,0,0,0-.85.84V14a.85.85,0,0,0,.85.85H6.22l0,1.27H3.59A2.12,2.12,0,0,1,1.47,14V8.93A2.11,2.11,0,0,1,3.59,6.82h.54A2.11,2.11,0,0,1,6.25,8.93v2.52Z"/><path class="cls-5" d="M12.25,16.17H10.91l-1.1-3.46H8.66v3.43H7.38V6.82h2.67a2.12,2.12,0,0,1,2.13,2.12v1.65a2.15,2.15,0,0,1-1.12,1.88ZM10.9,8.94a.85.85,0,0,0-.85-.85H8.66v3.35l1.37,0a.88.88,0,0,0,.87-.87Z"/><path class="cls-5" d="M14.45,14.06a2.66,2.66,0,0,0,.49.59,1,1,0,0,0,.6.22h.77a.61.61,0,0,0,.62-.61V12.71H15.55a2.12,2.12,0,0,1-2.12-2.12V6.82H14.7v3.77a.85.85,0,0,0,.85.85h1.38V6.82h1.28v7.44a1.83,1.83,0,0,1-1.82,1.82h-.84a2.24,2.24,0,0,1-1.75-.84A6.52,6.52,0,0,1,13,13.89l1.27-.18Z"/><path class="cls-5" d="M22,12.7H20.82v3.46H19.54V6.82H22.2a2.11,2.11,0,0,1,2.12,2.11v1.65a2.14,2.14,0,0,1-1.12,1.88A2.4,2.4,0,0,1,22,12.7ZM23,8.93a.84.84,0,0,0-.84-.84H20.82v3.33s.73,0,1.36,0a.86.86,0,0,0,.86-.86Z"/><path class="cls-5" d="M29,8.09H27.48v8H26.2v-8H24.64V6.82H29Z"/><path class="cls-5" d="M34.47,8.94v5.11a2.1,2.1,0,0,1-2.1,2.11H31.8A2.13,2.13,0,0,1,29.67,14V8.94A2.12,2.12,0,0,1,31.8,6.82h.54A2.12,2.12,0,0,1,34.47,8.94Zm-1.28,0a.85.85,0,0,0-.85-.84H31.8a.85.85,0,0,0-.85.84V14a.85.85,0,0,0,.85.85h.57a.83.83,0,0,0,.82-.83Z"/></g><polygon class="cls-3" points="0.12 19.79 0.12 32.51 31.94 32.55 35.78 32.55 35.79 19.83 0.12 19.79"/><g class="cls-4"><path class="cls-5" d="M7.05,29a1.89,1.89,0,0,1-1.89,1.89H4.28A2.33,2.33,0,0,1,2.47,30a7.1,7.1,0,0,1-.86-1.4l1.32-.18.22.35a2.47,2.47,0,0,0,.51.62,1,1,0,0,0,.62.23h.8A.64.64,0,0,0,5.72,29V28.3a.87.87,0,0,0-.88-.88H4.27a2.21,2.21,0,0,1-2.2-2.21h0V23.53a2.2,2.2,0,0,1,2.2-2.2h.56A2.2,2.2,0,0,1,7,23.53V25H5.71V23.53a.87.87,0,0,0-.88-.88H4.27a.87.87,0,0,0-.87.88v1.68h0a.87.87,0,0,0,.87.88h.57a2.21,2.21,0,0,1,2.21,2.2Z"/><path class="cls-5" d="M11.64,26.18V23.67a.85.85,0,0,0-.84-.84h-.54a.85.85,0,0,0-.85.84v5.09a.85.85,0,0,0,.85.85h2.63l0,1.27H10.26a2.12,2.12,0,0,1-2.12-2.12V23.67a2.12,2.12,0,0,1,2.12-2.12h.54a2.12,2.12,0,0,1,2.12,2.12v2.52Z"/><path class="cls-5" d="M15.33,27.47v3.41l-1.27,0V21.55h1.27v4.6H17v-4.6h1.28V30.9l-1.28,0V27.47Z"/><path class="cls-5" d="M24.35,23.68v5.11a2.1,2.1,0,0,1-2.11,2.11h-.56a2.13,2.13,0,0,1-2.13-2.13V23.68a2.13,2.13,0,0,1,2.13-2.13h.54A2.14,2.14,0,0,1,24.35,23.68Zm-1.28,0a.85.85,0,0,0-.85-.84h-.54a.85.85,0,0,0-.85.84v5.09a.85.85,0,0,0,.85.85h.56a.83.83,0,0,0,.83-.83Z"/><path class="cls-5" d="M30.33,23.68v5.11a2.1,2.1,0,0,1-2.1,2.11h-.57a2.13,2.13,0,0,1-2.13-2.13V23.68a2.13,2.13,0,0,1,2.13-2.13h.54A2.13,2.13,0,0,1,30.33,23.68Zm-1.28,0a.85.85,0,0,0-.85-.84h-.54a.85.85,0,0,0-.85.84v5.09a.85.85,0,0,0,.85.85h.57a.83.83,0,0,0,.82-.83Z"/><path class="cls-5" d="M34.55,30.86h-.86a2.11,2.11,0,0,1-2.12-2.11v-7.2h1.27v7.19a.85.85,0,0,0,.85.85h.86Z"/></g><path d="M2.2,18.68H33.72v-.8H2.06A4.32,4.32,0,0,1,2.2,18.68Z"/><path d="M2.2,33.44H33.72v-.79H2.06A4.22,4.22,0,0,1,2.2,33.44Z"/></g></g></svg>